<svg width="36" height="30" viewBox="0 0 36 30" fill="none" xmlns="http://www.w3.org/2000/svg">
<path d="M31.9168 7.86015C31.9381 8.1687 31.9381 8.47725 31.9381 8.78865C31.9381 18.277 24.7149 29.2199 11.5069 29.2199V29.2142C7.60522 29.2199 3.78458 28.1023 0.5 25.995C1.06734 26.0633 1.63752 26.0974 2.20912 26.0988C5.44251 26.1017 8.58349 25.0168 11.1273 23.019C8.05454 22.9607 5.36004 20.9572 4.41875 18.0324C5.49512 18.24 6.60421 18.1973 7.66067 17.9087C4.31068 17.2319 1.90057 14.2885 1.90057 10.8703C1.90057 10.839 1.90057 10.8092 1.90057 10.7793C2.89874 11.3353 4.01635 11.6438 5.15956 11.6779C2.00437 9.56927 1.03179 5.37183 2.93713 2.09009C6.58288 6.57618 11.9619 9.30338 17.7362 9.59202C17.1575 7.09801 17.9481 4.48457 19.8136 2.73137C22.7058 0.0127 27.2544 0.152046 29.9731 3.04276C31.5813 2.72568 33.1226 2.13559 34.5331 1.29952C33.9971 2.96171 32.8752 4.37366 31.3765 5.27088C32.7998 5.10309 34.1904 4.72202 35.5 4.14047C34.536 5.58511 33.3217 6.84349 31.9168 7.86015Z" fill="#FCAE2B" fill-opacity="0.5"/>
</svg>
